<?xml version="1.0" standalone="no"?>
<!DOCTYPE svg PUBLIC "-//W3C//DTD SVG 20010904//EN"
 "http://www.w3.org/TR/2001/REC-SVG-20010904/DTD/svg10.dtd">
<svg version="1.0" xmlns="http://www.w3.org/2000/svg"
 width="300.000000pt" height="300.000000pt" viewBox="0 0 300.000000 300.000000"
 preserveAspectRatio="xMidYMid meet">
<metadata>
Created by potrace 1.10, written by Peter Selinger 2001-2011
</metadata>
<g transform="translate(0.000000,300.000000) scale(0.100000,-0.100000)"
fill="#000000" stroke="none">
<path d="M1200 2422 c-14 -2 -30 -8 -36 -13 -6 -5 -18 -7 -27 -3 -8 3 -18 1
-21 -5 -6 -9 -92 -27 -109 -23 -5 1 -5 -3 -1 -9 4 -8 0 -9 -16 -4 -18 6 -22 4
-17 -8 3 -8 0 -20 -6 -26 -8 -8 -8 -11 0 -11 6 0 20 -3 30 -6 15 -5 15 -4 3 5
-13 9 -12 11 5 11 17 0 17 2 5 10 -11 7 -2 9 32 8 29 -1 56 5 72 15 14 10 38
17 53 17 15 0 36 7 46 14 10 8 29 11 45 7 27 -5 27 -5 -8 -12 -23 -5 -10 -6
35 -4 39 2 64 1 58 -2 -22 -8 -15 -20 20 -34 17 -7 65 -46 105 -87 39 -41 72
-72 72 -69 0 3 -6 12 -13 19 -8 7 -26 32 -40 55 -40 64 -138 134 -206 147 -31
6 -67 10 -81 8z"/>
<path d="M1080 2304 l-45 -24 35 4 c19 3 36 10 38 16 2 6 15 -1 28 -15 13 -14
29 -23 34 -20 6 3 10 2 10 -4 0 -5 -5 -13 -10 -16 -7 -4 -7 -13 0 -26 10 -17
6 -23 -12 -20 -4 0 -4 -7 -1 -16 4 -11 8 -13 11 -5 7 22 20 12 35 -26 8 -21
22 -44 31 -51 19 -16 21 -8 3 11 -7 7 -18 26 -25 41 -10 24 -7 22 28 -14 40
-42 49 -56 30 -44 -5 3 -10 -3 -10 -14 0 -20 -1 -20 -35 -3 -25 12 -34 22 -31
35 4 16 2 16 -12 5 -9 -7 -19 -14 -21 -15 -2 -1 1 -8 7 -16 16 -19 62 -203 62
-247 0 -41 -2 -43 -73 -56 -36 -6 -55 -19 -43 -31 3 -3 12 -1 19 5 8 7 16 9
19 6 3 -3 23 2 43 10 l37 16 -6 -25 c-9 -34 -1 -31 18 7 19 36 20 41 6 33 -6
-4 -10 16 -10 52 0 32 -9 93 -19 136 -19 79 -18 85 10 64 28 -21 99 -179 99
-219 0 -10 3 -18 8 -18 4 0 6 20 4 45 -2 25 -7 43 -11 41 -3 -2 -15 17 -24 42
-10 26 -25 60 -34 75 -18 35 -14 41 21 28 24 -10 25 -9 14 9 -7 10 -17 16 -23
13 -5 -4 -2 3 8 14 17 20 17 21 0 27 -10 4 -18 6 -19 4 0 -2 -8 3 -16 10 -9 7
-14 21 -11 32 4 15 -4 23 -31 37 -20 9 -36 23 -36 30 0 20 18 16 30 -7 6 -11
16 -20 23 -19 9 0 9 2 -1 6 -6 2 -10 9 -7 14 3 4 -3 14 -15 21 -11 7 -20 18
-20 25 0 7 -8 13 -17 13 -14 1 -12 4 7 16 l25 15 -29 -6 c-26 -6 -28 -4 -17 9
21 26 -26 20 -79 -10z"/>
<path d="M926 2306 c-32 -18 -75 -64 -92 -99 -13 -26 -5 -20 43 29 32 34 68
63 78 66 16 3 17 5 5 9 -8 4 -24 1 -34 -5z"/>
<path d="M1370 2290 c25 -19 25 -19 3 -17 -12 0 -25 7 -27 14 -3 7 -11 13 -18
13 -9 0 -9 -3 2 -11 12 -9 11 -10 -8 -6 -12 3 -20 1 -16 -4 3 -5 12 -9 21 -9
9 0 25 -8 36 -17 11 -10 17 -12 13 -5 -12 21 9 13 33 -12 13 -14 18 -26 12
-30 -5 -4 -12 -2 -16 4 -8 13 -74 44 -81 37 -3 -3 13 -13 35 -23 23 -10 37
-22 34 -28 -3 -6 -3 -8 1 -4 10 8 136 -136 136 -155 0 -8 7 -20 15 -27 9 -7
13 -15 10 -18 -3 -3 0 -11 6 -18 6 -8 6 -14 0 -18 -5 -3 -19 11 -32 31 -12 21
-36 53 -53 71 -16 17 -26 32 -21 32 12 0 -27 40 -50 52 -11 5 -4 -4 15 -21 19
-17 31 -31 26 -31 -4 0 -22 11 -38 25 -16 14 -35 22 -41 18 -9 -5 -9 -3 0 8
10 12 8 15 -7 16 -13 1 -17 -3 -13 -13 3 -8 2 -14 -1 -14 -4 0 -11 12 -16 26
-7 18 -16 24 -32 22 -32 -5 -32 -21 1 -43 16 -10 28 -22 26 -26 -7 -10 52 -62
66 -57 7 2 -4 14 -25 27 -50 31 -39 38 16 10 23 -13 49 -23 55 -23 7 -1 12 -4
10 -8 -1 -3 9 -19 23 -33 l25 -27 -42 21 c-56 28 -54 20 5 -20 26 -18 49 -36
52 -39 3 -4 14 -12 25 -18 11 -6 29 -36 41 -69 l21 -58 94 -5 c96 -5 124 -13
113 -32 -4 -6 -2 -8 4 -4 19 11 22 -9 24 -143 1 -72 5 -131 8 -131 15 0 19 14
9 31 -6 12 -6 19 0 19 5 0 12 -6 14 -12 4 -10 6 -10 6 -1 1 7 -5 17 -11 24 -9
8 -12 40 -10 108 3 109 -7 141 -47 141 -19 0 -22 3 -12 9 9 6 0 10 -28 13 -22
2 -41 -1 -41 -5 0 -5 -7 -4 -15 3 -8 7 -15 9 -15 4 0 -5 -4 -2 -10 6 -8 12
-10 12 -15 -2 -9 -23 -45 -11 -45 16 0 12 -9 39 -19 60 -18 34 -18 37 -3 31
12 -4 11 0 -5 14 -16 15 -20 28 -17 48 3 15 2 24 -2 21 -9 -10 -44 36 -44 58
0 19 -52 105 -76 125 -12 9 -12 15 -2 27 8 10 8 13 2 9 -14 -8 -37 16 -26 28
4 5 2 5 -4 2 -7 -4 -23 2 -37 13 -14 11 -29 20 -34 20 -4 0 3 -9 17 -20z m99
-126 c42 -62 38 -68 -9 -15 -21 25 -37 48 -34 53 8 13 11 10 43 -38z"/>
<path d="M1026 2215 c-25 -24 -47 -51 -47 -60 -3 -28 -4 -33 -11 -41 -5 -4 -7
-19 -7 -33 1 -17 3 -20 6 -8 2 9 9 17 14 17 6 0 8 -10 4 -22 -6 -21 -5 -22 6
-4 7 11 12 29 13 40 1 12 8 21 16 21 8 0 14 -5 13 -12 -1 -6 4 -13 11 -16 9
-4 12 2 8 19 -2 13 -8 21 -13 19 -4 -3 -12 3 -18 12 -9 16 -10 16 -11 1 0 -9
-4 -19 -9 -22 -15 -9 -6 39 12 64 20 29 55 53 66 46 5 -3 11 1 15 9 11 29 -23
15 -68 -30z"/>
<path d="M920 2220 c-8 -12 -15 -24 -15 -28 -1 -4 -11 -23 -23 -42 -12 -19
-25 -45 -28 -57 -3 -13 -10 -20 -15 -17 -5 3 -9 1 -9 -5 0 -5 8 -11 17 -13 13
-2 24 11 41 47 13 27 34 64 48 82 20 27 22 32 7 27 -16 -5 -16 -4 1 10 15 12
16 16 5 16 -8 0 -21 -9 -29 -20z"/>
<path d="M1517 2160 c26 -38 48 -68 51 -65 4 4 -86 135 -93 135 -2 0 17 -31
42 -70z"/>
<path d="M944 2153 c-17 -25 -44 -90 -43 -103 0 -3 9 12 20 33 11 20 24 37 30
37 6 0 9 6 6 13 -2 6 0 20 5 30 14 26 2 20 -18 -10z"/>
<path d="M1071 2125 c-1 -11 -4 -30 -7 -42 -5 -19 -2 -21 25 -19 30 2 31 0 32
-38 1 -24 4 -31 6 -18 2 12 9 20 14 17 5 -4 9 0 9 7 0 17 -48 84 -58 80 -3 -2
-9 5 -13 15 -7 17 -8 16 -8 -2z"/>
<path d="M826 2028 c-11 -6 -15 -26 -15 -81 0 -40 -2 -83 -5 -96 -3 -13 -2
-50 3 -82 6 -46 5 -62 -6 -71 -8 -6 -12 -17 -9 -25 3 -7 1 -13 -5 -13 -6 0 -8
-4 -5 -8 3 -4 1 -25 -4 -45 -7 -32 -5 -37 9 -37 21 0 40 85 45 210 2 47 7 100
11 117 5 22 3 38 -6 50 -10 11 -10 14 -1 9 12 -7 17 10 13 42 -1 8 2 19 8 26
13 15 -9 18 -33 4z"/>
<path d="M1091 1865 l1 -70 9 53 c6 34 5 60 -1 70 -7 12 -9 -3 -9 -53z"/>
<path d="M1426 1902 c-22 -15 -41 -33 -44 -40 -2 -8 20 3 49 24 67 46 65 44
48 44 -8 -1 -32 -13 -53 -28z"/>
<path d="M1507 1855 c-15 -14 -40 -28 -55 -32 -15 -3 -34 -13 -42 -21 -13 -14
-11 -15 20 -10 46 8 109 48 110 71 0 21 1 21 -33 -8z"/>
<path d="M1314 1774 c3 -8 2 -13 -2 -10 -10 6 -7 -103 3 -112 5 -4 6 0 3 8 -4
12 1 16 20 15 30 0 42 -24 18 -37 -27 -15 -19 -35 14 -35 34 0 38 14 16 55 -8
15 -17 39 -20 54 -3 15 -13 33 -21 42 -8 8 -15 19 -15 25 0 6 -5 11 -11 11 -6
0 -8 -7 -5 -16z"/>
<path d="M1477 1772 c-13 -14 -17 -36 -15 -98 1 -51 3 -63 5 -34 3 31 7 40 14
30 7 -12 9 -11 9 5 0 17 2 17 10 5 5 -8 10 -11 10 -6 0 6 -10 20 -22 33 -18
19 -20 27 -10 47 9 21 19 25 64 29 l53 3 -51 2 c-38 2 -55 -3 -67 -16z"/>
<path d="M1638 1776 c-19 -14 -24 -36 -9 -36 5 0 16 11 25 25 18 27 11 32 -16
11z"/>
<path d="M1492 1758 c-7 -7 -12 -19 -12 -27 0 -11 4 -10 14 5 10 13 27 21 47
22 46 1 49 12 3 12 -22 0 -45 -5 -52 -12z"/>
<path d="M1733 1753 c-9 -23 2 -48 23 -51 29 -4 48 21 35 47 -12 21 -50 25
-58 4z"/>
<path d="M1243 1718 c-12 -6 -21 -19 -20 -28 1 -17 3 -17 29 1 49 35 43 52 -9
27z"/>
<path d="M1620 1692 c0 -23 0 -44 0 -47 0 -3 3 -5 7 -5 3 0 6 18 6 40 0 22 -3
43 -6 47 -4 3 -7 -12 -7 -35z"/>
<path d="M1675 1696 c-20 -15 -17 -44 7 -59 12 -8 21 -7 32 2 36 30 -1 85 -39
57z"/>
<path d="M1142 1683 c6 -7 21 -13 34 -13 13 0 24 6 24 13 0 7 -13 12 -34 12
-26 0 -32 -3 -24 -12z"/>
<path d="M1462 1512 c-2 -60 -3 -64 -32 -73 -16 -6 -32 -19 -35 -29 -3 -10
-15 -20 -27 -22 -17 -2 -13 -8 26 -37 34 -24 45 -38 41 -50 -4 -9 -8 -22 -9
-30 -3 -18 -36 -23 -54 -9 -10 9 -15 9 -21 0 -3 -6 -15 -9 -26 -7 -11 2 -23 4
-27 4 -4 1 -16 10 -27 22 l-19 21 -12 -22 c-11 -20 -9 -68 4 -140 22 -116 7
-233 -38 -299 -14 -20 -26 -42 -26 -49 0 -7 -10 -22 -22 -34 -16 -16 -17 -20
-5 -15 15 5 16 3 7 -12 -16 -30 -60 -61 -89 -62 l-26 0 23 -10 c29 -11 49 -1
90 45 16 19 33 32 36 29 3 -4 6 5 6 18 0 27 16 53 71 117 24 27 36 49 32 59
-5 12 -11 6 -24 -20 -11 -20 -23 -39 -29 -42 -16 -10 -12 4 11 35 32 42 29
174 -7 350 l-7 35 25 -22 c13 -13 28 -23 32 -23 4 0 21 -9 36 -20 26 -18 27
-23 19 -57 -5 -21 -8 -56 -7 -78 0 -34 2 -32 8 17 8 63 27 99 65 124 21 14 25
24 25 64 0 40 -4 50 -25 64 -30 20 -32 37 -5 61 19 18 24 18 98 2 42 -9 63
-15 46 -13 -23 1 -31 -1 -27 -11 7 -19 30 -16 53 7 24 24 28 49 5 30 -13 -11
-24 -9 -60 9 -25 12 -49 20 -54 16 -6 -3 -12 20 -14 57 l-3 63 -2 -63z"/>
<path d="M766 1551 c-11 -4 -24 -25 -31 -49 -11 -35 -10 -42 3 -47 19 -7 27 1
47 48 9 23 11 37 5 37 -6 0 -8 5 -5 10 7 11 7 11 -19 1z"/>
<path d="M1103 1549 c-7 -7 9 -29 55 -75 36 -35 71 -64 78 -64 6 0 17 -14 24
-30 7 -17 15 -28 18 -25 3 2 11 -3 18 -13 8 -9 4 6 -8 35 -15 37 -30 55 -50
64 -28 11 -108 93 -108 110 0 12 -14 11 -27 -2z"/>
<path d="M1307 1513 c9 -7 28 -13 42 -13 14 0 37 -3 51 -7 14 -3 22 -2 18 2
-4 4 -1 13 8 20 13 9 0 11 -60 11 -63 -1 -73 -3 -59 -13z"/>
<path d="M1836 1481 c-4 -6 -1 -11 6 -11 8 0 9 -3 3 -8 -6 -4 -12 -39 -13 -78
-2 -67 0 -76 35 -135 39 -66 73 -110 73 -93 0 5 -11 28 -25 52 -13 23 -22 50
-19 60 4 11 3 13 -3 5 -12 -16 -30 -3 -43 31 -12 33 -7 44 13 27 12 -9 12 -5
3 23 -6 21 -13 30 -18 23 -4 -6 -6 6 -5 28 1 22 6 43 11 46 4 4 4 14 -1 24 -7
12 -13 14 -17 6z"/>
<path d="M699 1423 c-5 -13 -9 -31 -9 -39 0 -8 -6 -27 -14 -42 -19 -38 -28
-92 -15 -92 6 0 7 5 4 10 -7 11 8 14 19 3 4 -4 -3 -15 -16 -24 -12 -10 -20
-20 -17 -23 3 -3 15 3 27 14 11 11 23 16 25 12 7 -15 1 -36 -12 -40 -9 -3 -11
0 -6 8 5 9 4 11 -3 6 -7 -4 -12 -23 -12 -42 0 -21 -4 -33 -10 -29 -5 3 -7 0
-4 -8 3 -10 13 -13 27 -9 12 3 16 7 9 10 -17 5 -15 41 3 48 8 3 17 14 20 25 6
17 8 16 30 -9 22 -24 23 -25 18 -5 -5 21 -38 58 -52 58 -3 0 -5 2 -5 5 6 24
12 72 7 62 -8 -19 -22 -4 -16 18 3 11 9 17 14 14 5 -2 11 6 15 20 3 14 12 30
20 37 21 17 17 26 -12 32 -20 3 -27 -1 -35 -20z"/>
<path d="M1680 1421 c0 -25 -26 -46 -43 -35 -7 5 -4 1 7 -9 36 -33 155 -99
166 -92 5 3 9 23 9 43 -2 36 -2 36 -8 7 -3 -17 -10 -30 -16 -29 -21 1 -64 27
-59 35 3 5 -3 6 -12 2 -13 -5 -15 -3 -9 7 5 8 4 11 -2 7 -6 -4 -19 0 -29 8
-10 8 -14 15 -9 15 11 0 20 60 10 60 -3 0 -5 -8 -5 -19z"/>
<path d="M1870 1383 c0 -14 29 -38 36 -30 3 3 14 -3 24 -13 9 -9 24 -20 31
-22 8 -3 11 -9 6 -13 -4 -5 -20 1 -35 12 -23 17 -29 18 -29 6 0 -18 43 -36 69
-27 10 3 25 1 32 -5 7 -6 41 -14 74 -17 60 -7 63 -9 125 -73 64 -67 137 -188
172 -286 10 -27 22 -54 27 -59 4 -6 8 -22 8 -37 0 -15 4 -30 9 -33 4 -3 16
-27 26 -53 19 -50 115 -194 198 -298 27 -33 57 -76 67 -95 17 -34 64 -194 80
-273 4 -21 11 -41 15 -45 10 -9 -4 99 -14 113 -5 5 -16 44 -26 85 -19 81 -77
208 -110 243 -12 12 -37 45 -55 72 -19 28 -38 55 -42 60 -42 52 -118 200 -118
230 0 7 -7 26 -15 41 -8 16 -15 38 -15 49 0 55 -184 335 -220 335 -5 0 -14 9
-20 20 -6 11 -26 22 -48 26 -20 4 -45 11 -54 16 -10 4 -41 13 -70 18 -28 6
-60 18 -70 27 -10 9 -18 12 -18 8 0 -4 -9 0 -20 10 -11 10 -20 13 -20 8z"/>
<path d="M1440 1370 c0 -3 24 -11 53 -18 28 -6 62 -14 75 -18 16 -5 22 -2 22
10 0 11 -9 16 -27 16 -16 -1 -49 3 -75 8 -27 5 -48 6 -48 2z"/>
<path d="M1461 1298 l2 -43 7 40 c7 39 7 39 9 7 0 -18 5 -31 11 -27 5 3 7 12
3 21 -4 12 0 14 21 10 37 -7 92 -41 89 -55 -2 -6 4 -11 12 -11 8 0 15 -4 15
-10 0 -5 -26 -10 -57 -10 -85 0 -101 -17 -22 -23 88 -8 162 -4 166 8 2 6 -12
10 -32 9 -21 -1 -35 3 -35 10 0 29 -135 116 -181 116 -5 0 -8 -19 -8 -42z"/>
<path d="M748 1280 c-14 -16 -15 -20 -3 -30 11 -9 15 -7 21 15 8 34 2 39 -18
15z"/>
<path d="M2132 1213 c-7 -3 -24 -27 -38 -55 -31 -61 -19 -59 30 4 34 45 36 61
8 51z"/>
<path d="M619 1198 c-1 -7 -1 -17 0 -22 1 -5 -2 -12 -7 -15 -14 -9 -60 -152
-63 -196 -1 -22 -7 -45 -12 -52 -5 -7 -7 -18 -4 -25 4 -8 6 -7 6 5 1 9 5 17
10 17 4 0 11 19 14 43 8 57 12 73 37 142 12 33 23 67 24 75 1 9 5 21 10 28 4
6 2 12 -3 12 -6 0 -12 -6 -12 -12z"/>
<path d="M712 1180 c-14 -23 -15 -33 -3 -26 5 4 7 -3 4 -14 -8 -31 11 -23 24
10 14 37 -5 61 -25 30z"/>
<path d="M1468 1189 c14 -5 22 -16 20 -25 -4 -22 -44 -28 -52 -9 -3 8 -14 15
-24 15 -25 0 -45 -45 -32 -69 5 -10 6 -22 2 -26 -4 -5 -1 -5 6 -1 8 5 10 16 7
29 -5 16 -4 18 3 8 6 -8 12 -10 16 -3 4 6 -2 15 -11 21 -26 14 -9 25 17 11 12
-7 37 -10 56 -8 19 2 36 -1 39 -7 3 -5 3 3 -1 19 -6 32 -29 56 -54 55 -8 0 -5
-4 8 -10z"/>
<path d="M1976 1168 c10 -13 26 -30 34 -39 8 -9 32 -35 53 -58 21 -22 42 -41
48 -41 5 0 -25 36 -67 80 -73 76 -110 107 -68 58z"/>
<path d="M680 1110 c0 -6 -4 -8 -10 -5 -10 6 -11 5 -15 -32 -1 -12 -5 -28 -8
-37 -8 -20 -4 -20 33 -1 16 8 32 24 35 36 6 17 9 19 16 8 5 -8 9 -9 9 -4 0 6
-4 16 -9 23 -6 11 -13 8 -29 -12 -12 -16 -23 -22 -27 -16 -8 13 4 32 16 25 5
-4 9 -2 9 4 0 5 -4 13 -10 16 -5 3 -10 1 -10 -5z"/>
<path d="M2200 1058 c-16 -34 -27 -65 -24 -70 3 -5 21 5 40 22 19 16 42 30 52
31 11 0 12 2 4 6 -7 3 -24 -2 -37 -11 -28 -19 -31 -15 -11 17 21 33 29 67 16
67 -6 0 -24 -28 -40 -62z"/>
<path d="M1417 1091 c-6 -23 11 -40 22 -22 6 9 15 9 35 1 15 -5 49 -10 76 -10
27 0 52 -4 55 -10 3 -5 13 -10 21 -10 12 0 12 4 4 20 -8 15 -21 20 -53 20 -38
0 -75 7 -133 25 -16 5 -23 2 -27 -14z"/>
<path d="M1380 1044 c0 -8 -4 -12 -10 -9 -6 4 -10 -9 -9 -32 0 -30 2 -34 9
-18 7 18 9 18 15 3 4 -9 5 -21 3 -25 -3 -4 1 -26 9 -48 l13 -40 -5 35 c-13 93
-12 111 1 106 10 -4 11 0 2 19 -13 28 -28 33 -28 9z"/>
<path d="M684 1024 c-10 -8 -14 -13 -7 -10 6 4 14 2 18 -4 3 -5 -3 -10 -14
-10 -16 0 -21 -7 -22 -27 l-1 -28 -8 25 c-9 28 -11 27 -14 -13 -1 -16 6 -38
16 -49 10 -12 18 -25 18 -30 0 -5 5 -6 10 -3 15 9 12 27 -2 20 -7 -4 -2 3 12
14 25 20 25 20 3 16 -28 -5 -29 5 -4 32 11 12 18 23 15 26 -2 2 0 16 5 31 12
30 4 33 -25 10z"/>
<path d="M1460 987 c0 -5 7 -15 17 -22 15 -11 14 -15 -7 -53 -27 -47 -65 -67
-131 -67 -40 0 -44 -2 -29 -12 10 -7 35 -12 56 -10 36 2 39 0 39 -25 -1 -14 3
-24 7 -22 4 3 8 21 8 40 0 24 5 34 15 34 9 0 28 21 44 46 27 42 30 44 40 25 7
-13 8 -22 1 -26 -5 -3 -10 -12 -10 -18 0 -9 2 -9 8 1 6 9 14 4 30 -18 27 -36
27 -37 1 -50 -16 -9 -26 -8 -45 5 -21 13 -24 13 -24 1 0 -9 10 -20 21 -27 18
-9 29 -7 61 11 21 12 45 19 53 16 10 -4 15 1 15 14 0 25 22 26 44 1 9 -10 29
-18 43 -18 24 0 23 1 -13 19 -21 10 -46 25 -54 34 -13 13 -13 16 0 24 8 5 17
7 19 4 3 -3 -1 -9 -9 -14 -13 -8 -12 -10 3 -10 26 0 59 19 52 30 -3 5 -16 9
-28 8 -12 -1 -48 10 -79 24 l-56 26 2 -23 c3 -30 38 -84 44 -67 5 17 22 15 22
-2 0 -22 -31 -28 -51 -10 -21 19 -42 75 -37 99 2 11 -9 21 -34 30 -24 8 -38 9
-38 2z"/>
<path d="M2274 966 c-19 -19 -34 -42 -34 -52 0 -14 10 -8 40 25 59 65 54 87
-6 27z"/>
<path d="M2167 952 c6 -19 32 -42 46 -42 5 0 4 7 -3 15 -7 8 -16 12 -21 9 -5
-3 -6 1 -3 9 3 8 -2 17 -10 20 -11 4 -13 1 -9 -11z"/>
<path d="M2304 900 c-22 -9 -42 -31 -27 -29 4 0 26 9 48 19 41 19 22 28 -21
10z"/>
<path d="M600 877 c-12 -19 -11 -20 2 -10 12 11 19 9 37 -11 12 -13 21 -27 20
-32 -2 -5 5 -25 14 -44 12 -25 15 -28 11 -10 -3 14 -6 36 -7 50 -5 55 -55 92
-77 57z"/>
<path d="M1757 889 c5 -5 46 -16 89 -24 89 -15 90 -17 172 -142 26 -40 50 -73
55 -73 16 0 -63 137 -105 181 -42 45 -45 47 -102 47 -32 0 -63 5 -69 11 -6 6
-20 11 -31 11 -14 0 -17 -3 -9 -11z"/>
<path d="M2237 863 c20 -51 117 -195 121 -182 3 6 10 5 20 -3 14 -10 15 -10 5
2 -22 24 -14 32 25 26 30 -5 33 -4 19 5 -11 6 -30 9 -43 6 -21 -4 -33 8 -91
89 -36 52 -67 94 -69 94 -2 0 4 -17 13 -37z"/>
<path d="M905 825 c-16 -16 -30 -41 -31 -54 -1 -26 37 -73 44 -53 2 7 10 12
18 12 23 0 54 38 54 68 l0 27 -16 -30 c-18 -35 -31 -45 -61 -45 -30 0 -29 12
3 60 33 50 29 55 -11 15z"/>
<path d="M2341 836 c-14 -14 -23 -28 -20 -30 7 -8 51 33 47 44 -2 6 -14 0 -27
-14z"/>
<path d="M1850 836 c0 -4 13 -29 28 -56 33 -57 51 -57 22 -1 -17 35 -50 72
-50 57z"/>
<path d="M610 810 c-1 -8 -2 -21 -1 -27 1 -7 -4 -13 -11 -13 -9 0 -9 -3 0 -12
17 -17 24 -5 19 34 -2 18 -5 26 -7 18z"/>
<path d="M636 748 c5 -30 4 -39 -5 -34 -6 4 -9 12 -6 17 3 5 -1 6 -11 2 -14
-5 -14 -7 -1 -14 8 -5 13 -19 12 -34 -2 -14 1 -27 6 -31 9 -5 13 8 10 39 -1 9
2 17 6 17 5 0 7 18 5 40 -2 22 -8 40 -13 40 -5 0 -6 -18 -3 -42z"/>
<path d="M336 713 c-4 -4 -19 -9 -34 -11 -28 -4 -38 -9 -31 -17 7 -7 77 14 84
25 7 11 -8 14 -19 3z"/>
<path d="M1260 705 c6 -8 9 -19 5 -26 -4 -6 5 -3 21 7 40 25 42 27 17 20 -12
-4 -24 -2 -28 4 -3 5 -11 10 -17 10 -7 0 -6 -5 2 -15z"/>
<path d="M860 701 c0 -17 36 -31 90 -36 27 -2 56 -7 63 -11 8 -6 8 -3 -1 9
-10 11 -23 15 -45 11 -31 -5 -31 -5 -12 11 18 15 17 15 -19 11 -21 -3 -47 -1
-57 5 -13 6 -19 6 -19 0z"/>
<path d="M1005 697 c17 -8 36 -12 43 -9 20 7 7 14 -35 18 l-38 4 30 -13z"/>
<path d="M1201 705 c0 -5 6 -30 13 -55 8 -25 15 -37 15 -27 1 9 9 17 19 18 15
0 15 1 -2 8 -10 4 -24 20 -31 37 -8 16 -14 25 -14 19z"/>
<path d="M490 690 c-13 -9 -13 -10 0 -10 8 -1 2 -8 -13 -16 -16 -9 -26 -18
-23 -21 3 -3 12 0 21 7 13 11 19 10 36 -6 11 -10 20 -14 19 -9 -5 21 1 25 14
13 8 -7 12 -17 9 -23 -2 -5 4 0 15 12 11 12 22 19 26 16 3 -4 6 7 6 23 -1 27
-1 28 -15 10 -8 -10 -16 -24 -18 -30 -3 -8 -8 -7 -19 2 -9 7 -22 10 -31 6 -12
-4 -14 -1 -10 15 6 24 4 25 -17 11z"/>
<path d="M827 693 c-9 -14 1 -73 14 -89 8 -10 8 -14 0 -14 -6 0 -11 -16 -11
-36 0 -21 -9 -49 -22 -67 l-22 -32 22 19 c28 25 53 74 41 82 -20 12 -7 24 29
24 27 0 33 3 22 10 -11 7 -6 10 21 10 32 0 59 14 59 30 0 4 -7 7 -15 7 -8 0
-15 -6 -15 -12 0 -7 -12 -10 -32 -8 -70 8 -76 12 -74 37 3 28 -8 53 -17 39z"/>
<path d="M650 618 c-25 -23 -47 -42 -50 -43 -3 0 -16 -10 -30 -22 -13 -13 -27
-23 -32 -23 -4 0 -8 -5 -8 -11 0 -5 15 1 33 15 37 28 57 33 57 14 0 -9 3 -9
12 0 18 18 31 15 23 -5 -15 -37 -12 -71 6 -76 21 -6 21 10 0 32 -11 13 -10 17
9 33 26 21 62 26 42 6 -24 -24 -11 -29 17 -6 32 25 41 44 15 34 -8 -3 -12 -2
-9 4 3 6 -2 10 -11 10 -14 0 -15 3 -6 12 7 7 12 16 12 22 0 5 -6 1 -14 -9 -8
-11 -12 -23 -10 -26 5 -9 -35 -19 -52 -12 -8 3 -14 9 -14 14 0 13 42 49 52 43
4 -3 8 4 8 15 0 12 -1 21 -3 21 -1 0 -22 -19 -47 -42z"/>
<path d="M1242 598 c-2 -45 -28 -53 -35 -10 -3 22 -4 20 -6 -10 -1 -32 2 -38
19 -38 25 0 33 17 27 62 l-4 33 -1 -37z"/>
<path d="M2070 608 c0 -9 -3 -25 -7 -35 -6 -16 -5 -16 10 -5 14 12 17 10 23
-12 3 -15 12 -30 19 -34 6 -4 29 -37 49 -74 58 -105 54 -80 -5 31 -60 114 -88
155 -89 129z"/>
<path d="M920 545 c17 -21 8 -117 -27 -280 -41 -186 -50 -265 -31 -265 11 0
17 27 26 108 6 59 25 161 42 227 24 94 29 131 24 173 -5 43 -10 52 -26 52 -17
0 -18 -3 -8 -15z"/>
<path d="M2015 523 c-3 -21 -12 -72 -20 -113 -24 -133 -25 -171 -6 -220 l19
-45 0 88 c1 48 4 91 6 96 7 11 17 231 11 231 -2 0 -7 -17 -10 -37z"/>
<path d="M539 471 l-21 -36 21 18 c12 9 24 17 28 16 4 0 10 8 14 19 13 34 -20
21 -42 -17z"/>
<path d="M597 478 c-2 -18 -1 -40 4 -48 6 -11 8 -6 9 17 0 17 3 38 6 47 3 9 2
16 -4 16 -5 0 -12 -15 -15 -32z"/>
<path d="M696 463 c-6 -28 -32 -231 -43 -333 -3 -30 -14 -72 -25 -92 l-18 -38
25 0 c20 0 25 5 25 24 0 25 23 41 43 30 7 -3 4 1 -6 9 -22 18 -27 63 -16 146
5 36 12 95 15 131 4 36 11 68 17 72 6 4 8 10 4 14 -4 4 -3 12 2 18 6 7 4 18
-4 29 -12 17 -14 16 -19 -10z"/>
<path d="M1030 360 c-12 -16 -18 -30 -15 -30 4 0 0 -7 -9 -15 -8 -9 -18 -32
-22 -53 -4 -20 -13 -49 -20 -64 -16 -31 -19 -57 -5 -43 5 6 22 44 39 85 17 41
37 92 46 113 20 45 15 47 -14 7z"/>
<path d="M2215 350 c12 -40 77 -162 107 -199 15 -19 25 -38 22 -43 -3 -4 -1
-8 5 -8 5 0 26 -22 46 -50 24 -33 44 -50 58 -50 l21 0 -21 15 c-35 25 -106
122 -163 225 -29 52 -60 104 -68 115 -13 19 -14 19 -7 -5z"/>
<path d="M1056 184 c-21 -31 -50 -63 -66 -72 -16 -9 -31 -24 -34 -32 -3 -8
-10 -25 -15 -37 -17 -37 122 108 147 154 32 62 12 53 -32 -13z"/>
<path d="M1852 203 c11 -40 55 -133 63 -133 4 0 -14 51 -49 135 -20 46 -27 45
-14 -2z"/>
<path d="M1946 129 c-5 -35 -3 -56 5 -63 8 -8 9 -3 4 23 -6 29 -5 33 9 28 20
-8 21 20 2 46 -12 15 -14 11 -20 -34z"/>
<path d="M1936 43 c-7 -8 12 -43 24 -43 15 0 12 37 -4 43 -8 3 -17 3 -20 0z"/>
</g>
</svg>
